<?xml version="1.0" encoding="utf-8" ?>
<svg baseProfile="tiny" height="212" version="1.2" width="612" xmlns="http://www.w3.org/2000/svg" xmlns:ev="http://www.w3.org/2001/xml-events" xmlns:xlink="http://www.w3.org/1999/xlink"><defs /><path d="M 60 73 L 60 85 L 70 85 L 77 87 L 77 182 L 76 183 L 54 184 L 54 187 L 58 188 L 58 193 L 557 193 L 557 191 L 442 191 L 441 190 L 441 182 L 442 181 L 560 182 L 560 179 L 515 179 L 514 178 L 514 130 L 525 127 L 542 125 L 543 124 L 543 112 L 542 111 L 505 108 L 504 107 L 496 107 L 495 106 L 486 106 L 485 105 L 477 105 L 476 104 L 467 104 L 466 103 L 458 103 L 457 102 L 449 102 L 448 101 L 440 101 L 439 100 L 413 98 L 412 97 L 402 97 L 401 96 L 393 96 L 392 95 L 383 95 L 382 94 L 374 94 L 373 93 L 365 93 L 364 92 L 356 92 L 355 91 L 336 90 L 335 89 L 335 85 L 336 84 L 351 80 L 351 65 L 319 61 L 318 60 L 306 59 L 305 58 L 299 58 L 298 57 L 291 57 L 290 56 L 283 56 L 282 55 L 255 52 L 254 51 L 232 49 L 231 48 L 205 45 L 204 44 L 174 41 L 158 45 L 151 48 L 133 52 L 129 54 L 107 59 L 100 62 L 89 64 L 71 70 L 64 71 Z" fill="#C8A25A" stroke="none" /></svg>