<svg xmlns="http://www.w3.org/2000/svg" viewBox="0 0 512 512">
  <rect width="512" height="512" rx="15%" fill="#FF5A5F" />
  <path
    fill="none"
    stroke="#FFFFFF"
    stroke-width="30"
    stroke-linejoin="round"
    d="m256 72c-34 .1-48.3 28.1-48.3 28.1-43 78.2-83 157.1-118.5 237.9-20.1 44.6-5.3 80 17.3 98.9 43.2 36.3 96.2 15.7 148.5-45.5 40.3-47.1 58.5-86.3 56.9-118.6-1.6-28.1-18.6-51.6-56.4-51.6-55.7-.2-56.9 52.8-57.1 51.8 0 55.1 50.5 110.5 66.1 128.4 15.7 17.8 83.6 86.7 143.5 35.4 44.5-37.7 15.5-98.8 15.5-98.8-36.2-79.8-60.3-131.7-118.1-240 0 0-12.6-28.4-49.6-28.4z"
  />
</svg>