<?xml version="1.0" encoding="utf-8" ?>
<svg baseProfile="tiny" height="212" version="1.2" width="612" xmlns="http://www.w3.org/2000/svg" xmlns:ev="http://www.w3.org/2001/xml-events" xmlns:xlink="http://www.w3.org/1999/xlink"><defs /><polyline fill="none" points="330,184 331,183 355,183 356,184 356,191 355,192 331,192 330,191 330,185" stroke="#C8A25A" stroke-linecap="round" stroke-linejoin="round" stroke-width="3" /><polyline fill="none" points="66,184 67,183 75,183 76,184 76,191 75,192 59,192 58,191 58,185 59,184 65,184" stroke="#C8A25A" stroke-linecap="round" stroke-linejoin="round" stroke-width="3" /><polyline fill="none" points="357,179 358,178 386,178 387,180 388,178 398,178 400,181 416,181 419,180 420,181 437,181 438,182 438,190 437,191 357,191 356,190 357,180" stroke="#C8A25A" stroke-linecap="round" stroke-linejoin="round" stroke-width="3" /><polyline fill="none" points="478,131 479,130 483,131 483,178 482,179 439,179 438,178 438,136 441,135 442,132 447,132 448,134 460,134 462,131 465,131 466,133 477,133 477,132" stroke="#C8A25A" stroke-linecap="round" stroke-linejoin="round" stroke-width="3" /><polyline fill="none" points="500,129 501,128 503,128 504,130 508,130 509,128 512,129 512,178 511,179 484,179 483,178 483,133 484,132 490,132 491,130 494,131 499,131 499,130" stroke="#C8A25A" stroke-linecap="round" stroke-linejoin="round" stroke-width="3" /><polyline fill="none" points="388,125 389,124 397,124 399,127 405,127 406,125 409,125 411,128 416,129 416,178 415,179 389,178 388,177 388,126" stroke="#C8A25A" stroke-linecap="round" stroke-linejoin="round" stroke-width="3" /><polyline fill="none" points="357,122 362,121 364,124 384,125 386,127 386,177 385,178 355,178 354,177 354,125 357,124 357,123" stroke="#C8A25A" stroke-linecap="round" stroke-linejoin="round" stroke-width="3" /><polyline fill="none" points="516,120 520,119 521,120 530,120 537,122 536,125 517,128 516,127 516,121" stroke="#C8A25A" stroke-linecap="round" stroke-linejoin="round" stroke-width="3" /><polyline fill="none" points="293,112 294,111 298,112 298,176 297,177 272,177 271,176 271,113 272,112 293,113" stroke="#C8A25A" stroke-linecap="round" stroke-linejoin="round" stroke-width="3" /><polyline fill="none" points="134,109 137,108 138,110 144,110 145,108 156,110 156,176 155,177 135,177 134,176 134,110" stroke="#C8A25A" stroke-linecap="round" stroke-linejoin="round" stroke-width="3" /><polyline fill="none" points="237,108 238,107 244,107 246,110 270,111 271,112 271,176 270,177 238,177 237,176 237,109" stroke="#C8A25A" stroke-linecap="round" stroke-linejoin="round" stroke-width="3" /><polyline fill="none" points="188,104 189,103 194,103 196,106 207,105 208,107 215,107 216,105 219,105 221,108 227,108 228,106 234,106 235,107 235,176 234,177 189,177 188,176 188,105" stroke="#C8A25A" stroke-linecap="round" stroke-linejoin="round" stroke-width="3" /><polyline fill="none" points="182,104 183,103 186,104 186,176 185,177 157,177 156,176 156,109 157,108 162,108 163,106 172,107 173,106 181,106 181,105" stroke="#C8A25A" stroke-linecap="round" stroke-linejoin="round" stroke-width="3" /><polyline fill="none" points="337,103 338,102 340,102 341,104 350,103 351,105 369,106 370,107 380,106 381,108 389,107 390,109 396,109 397,107 399,107 401,110 430,112 431,113 438,113 439,111 441,111 443,114 448,114 449,112 451,112 453,115 457,115 458,113 461,113 463,116 468,116 469,115 471,115 472,117 481,116 482,118 510,120 516,122 515,127 492,129 491,130 479,130 478,131 462,131 461,132 439,132 438,131 438,124 440,123 438,124 438,178 437,179 420,179 416,177 416,129 418,127 409,125 384,124 383,123 356,121 354,123 354,182 353,183 327,183 326,182 326,104 327,103 336,103" stroke="#C8A25A" stroke-linecap="round" stroke-linejoin="round" stroke-width="3" /><polyline fill="none" points="329,92 330,91 343,92 344,93 354,92 355,94 363,93 364,95 372,94 373,96 391,97 401,99 411,98 412,100 417,100 418,98 420,98 422,101 425,101 426,99 429,99 431,102 434,102 435,100 437,100 439,103 443,103 444,101 446,101 448,104 456,103 457,105 475,106 485,108 494,107 495,109 503,108 504,110 532,112 540,114 540,120 539,121 331,101 326,99 326,93 328,92" stroke="#C8A25A" stroke-linecap="round" stroke-linejoin="round" stroke-width="3" /><polyline fill="none" points="246,84 249,83 251,86 256,86 257,84 261,84 263,87 267,87 268,85 271,85 273,88 277,88 278,86 281,86 283,89 287,89 288,87 291,87 293,90 298,91 299,96 299,108 297,111 284,111 283,110 270,110 269,109 238,107 237,106 237,86 238,85 246,85" stroke="#C8A25A" stroke-linecap="round" stroke-linejoin="round" stroke-width="3" /><polyline fill="none" points="74,81 78,80 79,81 78,85 72,85 71,82 73,81" stroke="#C8A25A" stroke-linecap="round" stroke-linejoin="round" stroke-width="3" /><polyline fill="none" points="188,79 189,78 197,78 199,81 204,81 205,79 207,79 209,82 217,81 218,83 227,83 235,85 235,105 234,106 195,104 188,102 188,80" stroke="#C8A25A" stroke-linecap="round" stroke-linejoin="round" stroke-width="3" /><polyline fill="none" points="181,79 184,78 186,81 186,102 182,104 164,105 163,106 155,106 145,108 135,108 134,107 134,91 138,89 166,84 171,82 180,81 180,80" stroke="#C8A25A" stroke-linecap="round" stroke-linejoin="round" stroke-width="3" /><polyline fill="none" points="186,77 181,79 176,79 166,82 134,88 132,90 132,178 134,179 298,179 300,178 298,177 298,114 300,113 298,111 298,109 301,107 301,97 298,95 298,91 300,90 299,88 262,85 261,84 250,84 249,83 237,83 236,82 217,81 216,80 188,78 187,77" stroke="#C8A25A" stroke-linecap="round" stroke-linejoin="round" stroke-width="3" /><polyline fill="none" points="175,54 180,53 182,56 203,58 211,60 217,59 218,61 224,60 225,62 259,66 266,68 273,68 287,71 302,72 310,74 316,73 317,75 330,76 332,78 332,82 327,84 326,86 326,183 330,186 329,191 77,191 76,186 79,184 77,183 77,86 79,85 79,82 81,80 88,79 99,75 110,73 114,71 125,69 129,67 175,55" stroke="#C8A25A" stroke-linecap="round" stroke-linejoin="round" stroke-width="3" /><polyline fill="none" points="166,45 169,44 173,46 173,53 172,54 154,58 110,71 99,73 71,82 61,82 60,81 60,75 61,74 68,73 90,66 101,64 108,61 166,46" stroke="#C8A25A" stroke-linecap="round" stroke-linejoin="round" stroke-width="3" /><polyline fill="none" points="176,43 179,42 180,44 203,46 204,47 224,49 231,51 253,53 254,54 289,58 290,59 297,59 305,61 311,60 312,62 339,65 340,66 345,66 348,68 348,75 347,76 337,76 336,75 330,75 329,74 323,74 322,73 316,73 301,70 265,66 258,64 244,63 223,59 174,53 173,52 173,46 176,44" stroke="#C8A25A" stroke-linecap="round" stroke-linejoin="round" stroke-width="3" /><polyline fill="none" points="176,41 167,44 159,45 152,48 141,50 130,54 119,56 115,58 108,59 101,62 90,64 61,73 60,75 60,83 61,84 63,82 70,82 71,85 76,85 77,86 77,182 76,183 67,183 66,184 56,184 55,186 58,187 59,192 76,192 77,193 330,193 331,192 356,192 357,193 556,193 556,191 439,191 438,190 438,182 439,181 492,181 493,179 511,179 512,181 514,179 558,179 559,181 558,179 515,179 514,178 514,130 520,127 542,124 542,122 540,121 540,114 542,112 540,111 503,108 493,106 484,106 474,104 465,104 464,103 456,103 455,102 447,102 446,101 438,101 437,100 411,98 410,97 401,97 400,96 391,96 390,95 381,95 380,94 372,94 371,93 363,93 353,91 335,90 334,85 336,83 349,80 350,77 349,80 338,82 334,84 334,90 327,92 326,91 326,86 329,83 332,83 332,76 333,75 348,76 348,67 350,66 349,65 177,41" stroke="#C8A25A" stroke-linecap="round" stroke-linejoin="round" stroke-width="3" /></svg>